<?xml version="1.0" encoding="UTF-8"?>
<svg id="Layer_1" xmlns="http://www.w3.org/2000/svg" viewBox="0 0 1214.6 1056.93">
  <defs>
    <style>
      .cls-1 {
        fill: #fff;
      }

      .cls-2 {
        fill: #303030;
      }

      .cls-3 {
        fill: #fdc313;
      }
    </style>
  </defs>
  <path class="cls-1" d="M1109.61,484.13c-14-10.11-28.67-19.76-39.8-33.16-4.14-4.98-4.98-11.27-.99-16.61,3.65-4.89,11.01-6.55,16.32-3.26.49.33,1.02.6,1.54.88.05,0,.25.05.53.13.24,0,.56.02.88.03-.23-.2,2.64-.89,1.98-.44.79-.39,1.56-.85,2.29-1.34-.39.19,1.92-1.71,2.24-2,1.6-1.5.82-.67,1.79-2.08,2.05-3,2.5-4.12,3.2-6.75.03-.1.34-2.16.44-2.45-.04-1.15-.19-3.5-.05-3.09-.55-2.77-1.38-4.68-2.77-7.14-3.09-5.47-7.74-10.1-13.02-14.09-12.58-9.52-27.74-16.48-41.63-24.06-17.83-9.72-35.66-19.45-53.49-29.17-12.56-6.85-3.88-27.56,9.75-23.12.53.17.84.28,1.02.35.02-.03.24-.03,1.03.11-1.57-.26,1.05-.64.04-.02,2.19-1.34,2.53-1.43,3.84-3.25,2.17-3.02,2.7-5.71,1.62-9.64-2.93-10.65-13.6-18.37-21.94-24.78-22.62-17.38-47.8-31.93-74.21-42.71-8.24-3.36-13.26-14.03-5.58-21.14,2.09-1.94,2.86-3.01,3.52-5.02.84-2.58,1.09-4.38.67-8.06-.42-3.59-2.86-8.85-6.67-12.78-10.32-10.64-26.27-15.46-40.25-18.96-32.96-8.25-67.64-5.3-99.09,7.29-11.64,4.66-21.71-13.26-12.31-21.14.11-.09.27-.18.44-.27-.02-.07-.03-.11-.04-.14-.58-1.02-1.08-2.06-1.76-3.03-2-2.83-6.04-6.19-10-8.11-12.08-5.87-26.8-8.98-40.06-10.72-28.24-3.71-56.83,0-83.35,10.23-4.94,1.9-11.97-1.26-14.29-5.81-9.03-17.73-28.97-25.41-48.42-24.35-23.74,1.29-45.5,16.32-62.96,31.52-5.54,4.83-16.25,5.37-19.87-2.56-4.58-10.04-11.45-14.84-21.77-17.49-5.61-1.44-9.19-1.7-15.76-1.31-3.34.2-3.49.21-6.99.99-2.93.65-5.83,1.49-8.63,2.58-3.75,1.45-10.86,5.78-15.33,9.42-5.71,4.65-10.8,10.1-15.46,15.79-9.18,11.21-16.42,24.04-23.66,36.55-4.12,7.12-14.07,8.22-19.87,2.56-4.65-4.55-11.36-5.66-17.42-4.42-8.48,1.74-14.43,5.42-20.02,11.85-11.61,13.36-14.11,31.47-19.42,47.69-3.57,10.92-10.97,19.43-22.76,21.13-9.2,1.33-18.15-2.3-26.75-2.57-15.43-.48-29.29,11.16-36.82,24.64-9.32,16.69-11.33,36.6-13.33,55.28-.66,6.15-5.36,13.48-12.65,12.65-12.81-1.45-26.63-2.93-38.74.38-10.86,2.97-17.84,10.36-20.38,21.46-2.77,12.1.22,25.15,4.06,37.31,5.17,16.37,11.24,31.98,13.2,49.17.74,6.46-6.36,13.1-12.65,12.65-13.3-.96-24.54,4.17-33.99,14.23-8.66,9.22-14.25,22.11-14.52,34.27-.66,29.36,20.77,54.96,45.5,69.21,12.5,7.2,4.02,26.99-9.75,23.12-7.35-2.06-14.22.65-20.49,7.33-5.85,6.23-8.93,14.62-8.18,22.97,1.75,19.41,19.64,34.93,36.46,44.11,8.96,4.89,7.92,21.37-3.02,23.12-1.75.28-3.46.62-5.16,1.13-.03,0-2.14.82-2.31.83-1.18.57-2.29,1.25-3.43,1.89-.55.33-1.08.69-1.6,1.06.83-.72.67-.59-.48.38-4.74,3.99-6.41,6.42-9.15,11.84-1.55,3.06-3.54,10.01-3.82,12.89-.66,6.8-.34,10.17,1.48,15.9,1.44,4.57,4.78,10.11,8.28,13.97,4.36,4.81,8.56,8.07,14,11.19,11.23,6.44,23.95,9.22,36.72,9.15,14.09-.08,17.46,21.84,3.36,24.85-1.36.29-2.71.64-4.03,1.11-.18.13-1.57.8-1.91,1-.14.08-1.5,1.07-1.79,1.23-.69.61-1.38,1.23-2.01,1.89-2.39,2.52-4.26,6.04-5.42,10.02-2.35,8.08-1.78,17.14,2.29,24.18,2.29,3.96,5.83,7.52,10.47,10.41,5.28,3.29,9.73,4.86,15.94,6.16,11.49,2.41,23.93.86,35.65-3.07,12.25-4.1,20.95,12.54,12.31,21.14-12.83,12.77-12.76,37.17,2.66,49.02.01-.06,2.25,1.39,2.18,1.35,1.05.62,2.15,1.22,3.27,1.73-.12-.1,2.43.86,2.39.85,1.3.41,2.62.75,3.95,1.04,3.14.68,9.49.71,12.34.18,5.84-1.09,9.04-2.3,13.52-5.07,3.18-1.97,6.83-5.53,8.9-8.78.03-.04.05-.07.08-.11.03-.05.07-.1.1-.15,2.71-4.07,6.62-5.71,10.48-5.62,4.58-.27,9.2,1.67,11.54,6.47.91,1.45,1.5,3.08,1.65,4.83,7.27,23.96,23.42,42.78,48.48,47.9,13.42,2.74,27.73,2.22,41.15-.32,14.89-2.82,28.77-9.78,43.66-12.15,16.77-2.67,30.63,3.7,44.98,11.6,12.17,6.7,24.72,12.48,37.95,16.78,46.57,15.12,105.92,11.05,137.8-31.01,5.31-7.01,12.94-8.07,19.87-2.56,11.67,9.28,26.55,16.94,40.76,21.56,53.81,17.49,116.98,4.36,156.12-37.83,4.02-4.34,10.36-4.33,15.33-1.98,17.15,8.13,35.82,13.65,54.65,16.11,9.78,1.28,19.79,1.75,29.65,1.35,7.37-.3,15.83-1.71,20.94-6.14,9.76-8.45,11.26-23.85,9.56-37.21-2.48-19.57-9.95-37.95-10.73-57.85-.3-7.72,8.4-15,16.01-12.2,18.53,6.83,35.33,18.42,54.45,23.58,11.29,3.04,25.24,3.09,34.22-3.83,10.94-8.43,9.59-25.61,8.19-38.27-4-36.08-14.13-72.11-28.74-105.3-2.76-6.28-1.91-13.54,4.54-17.31,5.62-3.28,14.26-1.58,17.31,4.54.57,1.14,1.15,2.23,1.84,3.3.02.03.28.36.48.63.29.21,1.63,1.49,2.02,1.91.48.3,1.73,1.14,1.7,1.12.52.31,1.06.58,1.59.86.17.09.26.14.34.19.76.29,1.54.54,2.32.77,5.23,1.52,10.49,1.41,16.05-.14,4.83-1.35,8.98-3.74,12.3-7.12,4.8-4.88,8.11-11.04,10.2-17.48,4.79-14.82,4.55-30.6,3.15-46.01-3.2-35.31-15.89-69.41-35.35-98.93-3.78-5.73-1.12-14,4.54-17.31,6.34-3.71,13.26-.95,17.31,4.54-1.35-1.83,1.37.69,1.16.83.57.3,1.26.65,1.61.86.4.08,1.07.25,1.67.39.25-.07,2.28.08,2.72.08.57,0,.91.03,1.1.05.09-.06.29-.15.73-.28,1.34-.41,2.7-.71,4.02-1.17.09-.03.13-.05.2-.07.6-.29,1.2-.58,1.78-.89,1.24-.68,2.46-1.42,3.61-2.25.6-.51,1.19-1.05,1.76-1.6.34-.34,1.88-2.09,2.21-2.43.23-.43,1.45-2.4,1.66-2.8.1-.21.16-.34.24-.49.18-.52.35-1.04.49-1.57,1.24-6.5.62-12.5-1.89-18.69-6-14.78-19.04-25.44-31.59-34.51ZM407.58,571.77c-32.48,0-58.81-26.33-58.81-58.81s26.33-58.81,58.81-58.81,58.81,26.33,58.81,58.81-26.33,58.81-58.81,58.81ZM709.83,572.32c-11.44,36.83-50.66,63.95-97.28,63.95s-85.8-27.12-97.23-63.95c-3.42-11.01,4.86-22.2,16.4-22.2h161.72c11.53,0,19.82,11.19,16.4,22.2ZM806.76,675.35c-32.48,0-58.81-26.33-58.81-58.81s26.33-58.81,58.81-58.81,58.81,26.33,58.81,58.81-26.33,58.81-58.81,58.81Z"/>
  <path class="cls-1" d="M751.79,155.46c-.15.2-.23.42-.33.64.3-.19.5-.39.33-.64Z"/>
  <path class="cls-2" d="M1163.64,553.23c8.44-14.67,6.13-32.64-.61-47.44-7.15-15.71-19.87-27.79-33.36-38.1-7.51-5.73-15.33-11.02-22.78-16.75,12.46-9.32,20.47-26.74,17.81-41.96-5.53-31.7-41.53-46.94-66.5-60.56-11.41-6.22-22.81-12.44-34.22-18.66,3.1-3.84,5.5-8.3,6.87-13.01,5.24-17.96-5.69-35.39-18.45-47.11-23.28-21.38-51.48-38.03-80.43-51.11,4.05-11.83,2.37-25.68-3.96-36.6-10.14-17.52-29.84-26.62-48.29-32.63-33.83-11.01-71.18-11.56-105.49-1.99-2.14-5.64-5.78-10.94-10.01-15.05-12.38-12-30.69-16.86-47.13-20.3-32.88-6.88-67.45-5.29-99.38,5.17-14.42-19.06-39.48-28.83-63.16-28.06-26.4.86-50.02,13.45-70.56,29.3-16.96-18.84-47.43-23.3-71.06-15.53-30.23,9.95-49.63,36.6-65.55,63.05-13.8-5.67-30.06-3.77-43.71,3.25-19.23,9.88-29.61,30.51-36.01,50.19-1.52,4.69-2.86,9.44-4.14,14.2-.81,3.01-1.45,7.35-2.86,9.78-.57.98-1.57.59-3.09.56-2.04-.04-3.54-.34-5.62-.73-5.41-1.03-10.87-2.24-16.4-2.3-22.1-.24-41.5,13.54-53.89,30.92-12.52,17.57-16.64,39.35-19.22,60.6-12.04-.9-24.3-.74-35.85,2.79-16.48,5.04-28.75,16.57-34.77,32.69-5.55,14.87-4.27,32.1-.48,47.21,3.4,13.56,9.37,26.64,12.82,40.25-23.23,4.36-43.02,22.33-52.35,43.98-12.36,28.69-5.7,61.16,12.77,85.72,4.37,5.82,9.21,11.19,14.44,16.15-15.25,9.26-25.98,27.04-26.78,45.15-1.02,22.98,12.53,43.02,29.9,57.48-12.96,10.59-20.79,27.58-22.35,44.29-2.6,27.68,15.76,52.59,39.66,64.72,4.95,2.51,10.1,4.56,15.37,6.2-9.24,15.9-9.88,37.64-1.79,54.13,11.79,24.02,39.06,33.07,64.96,32.1-5.45,21.37.67,45.81,18.51,59.93,20.07,15.88,48.7,15.12,69.04,1.37,8.8,18.32,22.69,34.37,41.38,42.79,29.97,13.5,65.97,9.62,96.29-.64,6.98-2.37,14.36-5.83,21.85-5.88,6.81-.05,12.96,3.07,18.84,6.22,14.17,7.61,28.32,14.82,43.51,20.23,29.35,10.45,61.22,14.26,91.95,8.32,27.25-5.27,52.13-18.61,71.01-38.57,52.18,34.78,121.73,37.42,177.77,8.94,13.85-7.04,26.72-16.23,37.93-27.04,29.62,12.56,63.43,19.95,95.31,16.18,17.08-2.02,32.41-9.71,40.84-25.28,6.98-12.89,9.05-28.33,7.44-42.78-1.41-12.61-5.15-24.85-7.83-37.24,11.57,5.72,23,11.79,35.54,15.16,16.71,4.5,36.13,4.06,51.36-4.89,17.54-10.31,24.19-29.77,23.93-49.25-.28-20.58-4.68-41.74-9.49-61.69-2.76-11.44-6.08-22.69-9.88-33.79,1.71.14,3.43.21,5.14.17,18.19-.41,33.93-9.24,44.47-23.9,11.51-16,14.89-36.83,14.86-56.13-.02-21.05-3.43-42.44-9.23-62.64-3.92-13.63-9.09-26.92-15.35-39.68,12.37-2.48,24.17-11.01,30.44-21.92ZM1143.1,537.34c-.14.53-.31,1.05-.49,1.57-.07.15-.13.28-.24.49-.21.4-1.43,2.38-1.66,2.8-.34.34-1.87,2.09-2.21,2.43-.57.55-1.16,1.09-1.76,1.6-1.15.83-2.36,1.58-3.61,2.25-.58.32-1.18.61-1.78.89-.07.03-.11.04-.2.07-1.33.47-2.68.77-4.02,1.17-.44.13-.65.22-.73.28-.19-.02-.53-.04-1.1-.05-.44,0-2.48-.15-2.72-.08-.6-.15-1.27-.31-1.67-.39-.35-.2-1.04-.55-1.61-.86.2-.14-2.51-2.66-1.16-.83-4.05-5.49-10.97-8.25-17.31-4.54-5.66,3.31-8.32,11.58-4.54,17.31,19.46,29.51,32.15,63.62,35.35,98.93,1.4,15.41,1.64,31.19-3.15,46.01-2.08,6.44-5.39,12.6-10.2,17.48-3.32,3.37-7.47,5.77-12.3,7.12-5.55,1.55-10.82,1.66-16.05.14-.78-.23-1.56-.48-2.32-.77-.09-.05-.17-.1-.34-.19-.53-.28-1.07-.56-1.59-.86.03.02-1.22-.83-1.7-1.12-.38-.42-1.73-1.7-2.02-1.91-.21-.27-.47-.6-.48-.63-.7-1.06-1.28-2.16-1.84-3.3-3.05-6.11-11.69-7.82-17.31-4.54-6.45,3.77-7.3,11.03-4.54,17.31,14.61,33.19,24.74,69.22,28.74,105.3,1.4,12.67,2.75,29.84-8.19,38.27-8.98,6.93-22.93,6.88-34.22,3.83-19.12-5.16-35.92-16.75-54.45-23.58-7.61-2.81-16.31,4.48-16.01,12.2.77,19.9,8.24,38.28,10.73,57.85,1.7,13.37.19,28.76-9.56,37.21-5.11,4.43-13.57,5.84-20.94,6.14-9.86.4-19.87-.07-29.65-1.35-18.83-2.46-37.5-7.98-54.65-16.11-4.97-2.36-11.31-2.36-15.33,1.98-39.14,42.2-102.31,55.32-156.12,37.83-14.21-4.62-29.09-12.29-40.76-21.56-6.93-5.51-14.56-4.45-19.87,2.56-31.88,42.06-91.23,46.13-137.8,31.01-13.23-4.29-25.77-10.08-37.95-16.78-14.36-7.9-28.21-14.27-44.98-11.6-14.89,2.37-28.77,9.33-43.66,12.15-13.41,2.54-27.72,3.06-41.15.32-25.06-5.12-41.2-23.94-48.48-47.9-.15-1.74-.74-3.37-1.65-4.83-2.34-4.8-6.96-6.74-11.54-6.47-3.86-.09-7.76,1.56-10.48,5.62-.03.05-.07.1-.1.15-.03.04-.05.07-.08.11-2.07,3.25-5.72,6.81-8.9,8.78-4.48,2.78-7.67,3.98-13.52,5.07-2.85.53-9.2.49-12.34-.18-1.33-.29-2.65-.63-3.95-1.04.04.01-2.51-.95-2.39-.85-1.12-.51-2.22-1.11-3.27-1.73.07.04-2.16-1.41-2.18-1.35-15.43-11.84-15.49-36.25-2.66-49.02,8.65-8.6-.06-25.25-12.31-21.14-11.72,3.92-24.15,5.48-35.65,3.07-6.2-1.3-10.66-2.87-15.94-6.16-4.65-2.9-8.19-6.45-10.47-10.41-4.07-7.05-4.64-16.1-2.29-24.18,1.16-3.98,3.03-7.51,5.42-10.02.63-.66,1.32-1.28,2.01-1.89.29-.16,1.65-1.14,1.79-1.23.33-.2,1.73-.86,1.91-1,1.31-.46,2.66-.81,4.03-1.11,14.1-3.01,10.73-24.93-3.36-24.85-12.77.07-25.49-2.71-36.72-9.15-5.44-3.12-9.64-6.38-14-11.19-3.5-3.86-6.83-9.4-8.28-13.97-1.81-5.74-2.14-9.1-1.48-15.9.28-2.88,2.27-9.84,3.82-12.89,2.74-5.42,4.41-7.84,9.15-11.84,1.16-.97,1.32-1.1.48-.38.52-.37,1.06-.72,1.6-1.06,1.14-.65,2.26-1.32,3.43-1.89.17,0,2.28-.82,2.31-.83,1.7-.51,3.41-.85,5.16-1.13,10.94-1.76,11.98-18.23,3.02-23.12-16.82-9.19-34.71-24.7-36.46-44.11-.75-8.35,2.33-16.74,8.18-22.97,6.27-6.68,13.14-9.39,20.49-7.33,13.77,3.86,22.25-15.92,9.75-23.12-24.74-14.25-46.16-39.85-45.5-69.21.27-12.17,5.87-25.06,14.52-34.27,9.44-10.06,20.69-15.18,33.99-14.23,6.29.45,13.39-6.19,12.65-12.65-1.96-17.19-8.03-32.8-13.2-49.17-3.84-12.16-6.83-25.2-4.06-37.31,2.54-11.1,9.52-18.49,20.38-21.46,12.11-3.31,25.93-1.83,38.74-.38,7.29.83,11.99-6.5,12.65-12.65,2-18.68,4.01-38.59,13.33-55.28,7.53-13.48,21.38-25.12,36.82-24.64,8.61.27,17.56,3.9,26.75,2.57,11.79-1.7,19.18-10.22,22.76-21.13,5.31-16.22,7.81-34.34,19.42-47.69,5.59-6.43,11.54-10.11,20.02-11.85,6.06-1.24,12.77-.13,17.42,4.42,5.8,5.66,15.75,4.56,19.87-2.56,7.24-12.51,14.48-25.34,23.66-36.55,4.66-5.69,9.75-11.14,15.46-15.79,4.46-3.64,11.58-7.96,15.33-9.42,2.8-1.09,5.7-1.93,8.63-2.58,3.49-.78,3.64-.79,6.99-.99,6.57-.39,10.15-.13,15.76,1.31,10.31,2.65,17.19,7.45,21.77,17.49,3.61,7.93,14.33,7.39,19.87,2.56,17.46-15.21,39.23-30.24,62.96-31.52,19.45-1.05,39.39,6.63,48.42,24.35,2.32,4.55,9.35,7.72,14.29,5.81,26.52-10.22,55.12-13.94,83.35-10.23,13.26,1.74,27.98,4.86,40.06,10.72,3.96,1.92,7.99,5.28,10,8.11.69.97,1.19,2.01,1.76,3.03,0,.03.01.07.04.14-.17.09-.33.18-.44.27-9.41,7.88.67,25.8,12.31,21.14,31.45-12.59,66.14-15.54,99.09-7.29,13.98,3.5,29.93,8.33,40.25,18.96,3.81,3.93,6.25,9.19,6.67,12.78.43,3.68.17,5.48-.67,8.06-.65,2.02-1.43,3.08-3.52,5.02-7.68,7.11-2.65,17.78,5.58,21.14,26.42,10.77,51.59,25.33,74.21,42.71,8.34,6.4,19,14.13,21.94,24.78,1.08,3.93.55,6.61-1.62,9.64-1.31,1.82-1.65,1.91-3.84,3.25,1.01-.62-1.61-.24-.04.02-.79-.13-1.01-.14-1.03-.11-.18-.07-.49-.18-1.02-.35-13.63-4.43-22.31,16.27-9.75,23.12,17.83,9.72,35.66,19.45,53.49,29.17,13.89,7.57,29.05,14.53,41.63,24.06,5.28,3.99,9.92,8.62,13.02,14.09,1.39,2.47,2.22,4.37,2.77,7.14-.15-.41,0,1.94.05,3.09-.1.29-.41,2.34-.44,2.45-.7,2.64-1.15,3.75-3.2,6.75-.97,1.42-.19.58-1.79,2.08-.32.3-2.63,2.2-2.24,2-.73.49-1.5.94-2.29,1.34.66-.45-2.22.24-1.98.44-.32-.01-.64-.03-.88-.03-.28-.08-.48-.13-.53-.13-.52-.28-1.04-.55-1.54-.88-5.31-3.3-12.67-1.63-16.32,3.26-3.99,5.34-3.15,11.63.99,16.61,11.13,13.4,25.8,23.04,39.8,33.16,12.56,9.07,25.6,19.74,31.59,34.51,2.51,6.19,3.14,12.19,1.89,18.69ZM751.46,156.1c.1-.22.18-.44.33-.64.18.25-.03.46-.33.64Z"/>
  <circle class="cls-2" cx="407.58" cy="512.97" r="58.81"/>
  <circle class="cls-2" cx="806.76" cy="616.54" r="58.81" transform="translate(-144.05 260.24) rotate(-16.85)"/>
  <path class="cls-2" d="M693.44,550.12h-161.72c-11.53,0-19.82,11.18-16.4,22.2,11.44,36.83,50.66,63.95,97.23,63.95s85.84-27.12,97.28-63.95c3.42-11.01-4.86-22.2-16.4-22.2Z"/>
  <path class="cls-3" d="M923.53,109.23l117.74,51.86,35.39-48.24-28.09,2.84c-6.49.65-13.01-1.43-17.91-5.73s-7.82-10.49-8.02-17l-1.18-39.04-29.74,26.49c-5.75,5.13-13.67,7.12-21.17,5.32-7.5-1.8-13.65-7.16-16.45-14.34l-10.18-26.06-20.4,63.91Z"/>
  <path class="cls-2" d="M911.9,131.75l120.45,53.06c3.11,1.37,6.36,2.03,9.57,2.03,7.3,0,14.35-3.42,18.93-9.65l38.53-52.51c5.59-7.61,6.15-17.43,1.46-25.63-4.68-8.2-13.4-12.7-22.83-11.75l-30.12,3.04-1.24-40.89c-.28-9.25-5.73-17.27-14.24-20.93-8.49-3.66-18.08-2.11-24.99,4.05l-30.66,27.3-11.06-28.3c-3.68-9.42-12.68-15.28-22.7-14.98-10.11.32-18.62,6.75-21.7,16.39l-22.36,70.06c-3.68,11.51,1.89,23.86,12.95,28.73ZM970.56,85.72c7.5,1.8,15.41-.19,21.17-5.32l29.74-26.49,1.18,39.04c.2,6.51,3.12,12.71,8.02,17s11.42,6.38,17.91,5.73l28.09-2.84-35.39,48.24-117.74-51.86,20.4-63.91,10.18,26.06c2.81,7.18,8.96,12.54,16.45,14.34Z"/>
</svg>